<svg xmlns="http://www.w3.org/2000/svg" width="89" height="25"><path d="M14.936 0a7.5 7.5 0 015.589 12.5 7.5 7.5 0 01-5.346 12.496l-.243.004h-9.77c-.545 0-.994-.412-1.051-.941l-.006-.116v-8.192h5v3.78c0 .23.165.422.384.461l.084.008h5.359a2.5 2.5 0 00.164-4.995L14.936 15H9.859v-5h5.077a2.5 2.5 0 00.164-4.995L14.936 5H9.577a.467.467 0 00-.46.384l-.008.085v3.78h-5V1.056c0-.544.412-.992.941-1.05L5.165 0h9.771zm16.62 7.578c3.771 0 7.489 1.466 7.489 8.657 0 .384-.038.976-.097 1.43l-.039.252h-9.715v.027c0 1.846 1.791 2.47 3.094 2.47 1.33 0 1.9-.109 2.632-.353.407-.135.814-.353 1.276-.407.922-.109 1.79.217 2.143 1.031.57 1.33-.081 2.47-1.384 3.23C36.087 24.43 34.16 25 32.18 25c-3.864 0-8.2-1.78-8.353-7.217l-.005-.3v-2.388c0-5.78 4.26-7.517 7.734-7.517zm11.613-5.97c1.466 0 2.704.783 2.79 2.517l.006.197v17.883l-.006.17a2.794 2.794 0 01-5.579 0l-.005-.17V4.322c0-1.872 1.276-2.714 2.795-2.714zm9.96.977c1.306 0 2.587.78 2.68 2.486l.006.2v2.823h1.601c1.737 0 2.388 1.167 2.388 2.28 0 1.094-.625 2.138-2.188 2.22l-.2.005h-1.601v6.73c0 .813.407 1.004.869 1.03.407.028.65-.108 1.193-.108.896 0 1.656.597 1.846 1.493.244 1.112-.245 2.035-1.004 2.523-.625.407-1.656.733-2.578.733-3.53 0-5.605-1.401-5.696-5.294l-.003-.27V12.6h-.895c-1.71 0-2.388-1.086-2.388-2.225 0-1.07.602-2.19 2.192-2.275l.196-.005h.895V5.272c0-1.845 1.33-2.687 2.686-2.687zm24.07-.977c1.058 0 2.252.217 3.12.76.923.57 1.167 1.493.923 2.524-.245.814-.95 1.547-1.846 1.547-.434 0-.65-.055-1.112-.136a4.303 4.303 0 00-.76-.081c-.507 0-.777.236-.81.951l-.004.161v.76h1.547c1.736 0 2.388 1.14 2.388 2.28 0 1.12-.626 2.14-2.188 2.22l-.2.005H76.71v9.626a2.774 2.774 0 11-5.549 0l.003-.134.01-.133v-9.36h-.923c-1.71 0-2.388-1.058-2.388-2.224 0-1.096.603-2.192 2.193-2.275l.195-.005h.923v-.597c0-4.369 2.117-5.889 6.024-5.889zm8.303 6.16c1.466 0 2.704.783 2.79 2.517l.005.197v11.723l-.005.17a2.794 2.794 0 01-5.58 0l-.005-.17V10.482c0-1.872 1.276-2.714 2.795-2.714zm-21.6 11.696c1.818 0 2.903 1.086 2.903 2.741s-1.085 2.74-2.903 2.74-2.904-1.058-2.904-2.74c0-1.683 1.086-2.74 2.904-2.74zM8.724 10c.186 0 .34.132.377.307l.008.078v4.23a.385.385 0 01-.308.377L8.724 15h-4.23a.384.384 0 01-.377-.307l-.008-.077v-4.231c0-.186.132-.341.307-.377L4.493 10h4.23zm-5.366 0v4.998h-.992C.541 14.876 0 12.5 0 12.5s.501-2.204 2.168-2.476L2.366 10h.992zm28.224 1.974c-1.148 0-2.27.552-2.38 2.187l-.008.201h4.586c.082-1.79-1.004-2.388-2.198-2.388zm-23.72-.92H5.355a.191.191 0 00-.185.141l-.007.051v2.506c0 .088.06.163.14.185l.052.007H7.86c.089 0 .163-.06.186-.14l.007-.052v-.725H6.992a.528.528 0 01-.095-1.047l.095-.008h1.062v-.726a.192.192 0 00-.193-.192zm6.151.813a.631.631 0 100 1.262.631.631 0 000-1.262zm-2.296 0a.631.631 0 10-.001 1.263.631.631 0 00.001-1.263zM85.502 1.608c1.52 0 2.823.706 2.823 2.497 0 1.79-1.303 2.496-2.823 2.496s-2.822-.705-2.822-2.496 1.303-2.497 2.822-2.497z" fill="#FCB251" fill-rule="evenodd"/></svg>