<svg xmlns="http://www.w3.org/2000/svg" width="23" height="28"><path d="M18.929 0a4.443 4.443 0 00-1.023.11c-.094.024-.59.117-1.257.486-1.13.07-2.081.498-3.157 1.843-.427.534-.78 1.39-1.059 2.569l-3.51 2.975 1.32 1.055c3.315-1.087 4.972-1.087 4.972 0 0 .824-.286 1.563-.857 2.218-.445.26-.868.494-1.268.7-1.268.654-3.272 1.532-6.01 2.633a.128.128 0 00-.07-.004c-1.598.39-2.806.891-3.627 1.505a3.542 3.542 0 00-.39.34 1.811 1.811 0 00-1.104.063c-.254.1-.48.556-1.016.903-.19.122-.48.175-.873.16.475.346.812.55 1.01.611.195.06.497.062.908.004-.259.778-.273 1.588.09 2.21.041.071.085.14.13.208L.506 23.756c.173.829.278 1.461.315 1.897.036.437.036.903 0 1.4.201.185.337.375.407.57.071.195.162.301.274.32h1.866c-.256-.352-.455-.587-.598-.708-.554-.466-1.358-.474-1.426-.473.079-.021.102-.951.068-2.79l2.537-1.896.145.059a.12.12 0 01.076.131l-.555 3.571 2.95 1.053c.433.146.72.292.864.439.144.147.217.371.222.671h2.16c-.377-.603-.7-.973-.968-1.11-.627-.32-1.455-.168-1.749-.332-.483-.27-1.368-.651-2.655-1.146l3.502-4.89c.317-.648.29-1.114.103-1.496.616.217 1.32.373 2.115.467.934.11 1.8.124 2.598.043l-.606 5.428 1.098 1.812 1.668-.503a1.449 1.449 0 00-.372-.571c-.117-.103-.421-.144-.911-.123l-1.073-.736 3.282-6.288c.133-.08.263-.165.39-.255.096-.055.193-.12.29-.198.07.033.142.064.214.092.504.193 2.052.193 4.644 0l-3.643 3.237-1.882-.407-.464 1.622c.36.224.854.185 1.482-.118.63-.304 1.108-.304 1.435 0 2.371-2.765 3.608-4.21 3.71-4.334.103-.125.103-.295 0-.51l-3.542-2.356c.106-.211.213-.432.321-.664.9-1.932.88-3.972-.057-6.12-.229-.62-.573-1.379-1.373-2.34a2.47 2.47 0 00.43-.672c.138-.342.138-.745 0-1.207-.316.405-.564.656-.744.754-.16.088-.402.153-.724.194-.11-.083-.228-.172-.356-.265.38-.886.725-1.543 1.031-1.973.235-.33.553-.774 1.034-1.13.22-.01.455.001.7.048.359.069.674.272 1.015.607a5.073 5.073 0 00-.826-1.109 3.37 3.37 0 011.004-.146c.669 0 1.284.133 2.16.868.36.304.655.624.882.96-.194-.664-.433-1.187-.65-1.515-.435-.638-.93-.946-1.312-1.153-.644-.348-1.41-.463-2.055-.465h-.028z" fill="#FFF" fill-rule="evenodd"/></svg>