<svg xmlns="http://www.w3.org/2000/svg" xmlns:xlink="http://www.w3.org/1999/xlink" width="37" height="37"><defs><linearGradient id="a" x1="50%" x2="50%" y1="100%" y2="0%"><stop offset="0%" stop-color="#FBC538"/><stop offset="100%" stop-color="#FFA800"/></linearGradient><filter id="b" width="158.4%" height="169.6%" x="-29.2%" y="-34.8%" filterUnits="objectBoundingBox"><feOffset in="SourceAlpha" result="shadowOffsetOuter1"/><feGaussianBlur in="shadowOffsetOuter1" result="shadowBlurOuter1" stdDeviation="2"/><feColorMatrix in="shadowBlurOuter1" values="0 0 0 0 0 0 0 0 0 0 0 0 0 0 0 0 0 0 0.1 0"/></filter><path id="c" d="M25.24 18.608c0 .344-.035.678-.086 1.007h-12.18v-1.99h12.183c.05.322.083.648.083.983zm-6.623 6.643h-5.644v-3.316h11.273c-1.11 1.978-3.214 3.316-5.63 3.316zm-5.644-12.93h5.637a6.453 6.453 0 015.636 3.315H12.973v-3.315zm15.583 3.154h-1.704A8.704 8.704 0 0018.75 10h-7.88v5.475H8v2.168h2.87v1.977H8v2.17h2.87v5.45h7.88a8.706 8.706 0 008.094-5.45h1.712v-2.17h-1.16c.038-.328.064-.66.064-1 0-.33-.024-.656-.06-.977h1.156v-2.168z"/></defs><g fill="none" fill-rule="evenodd"><circle cx="18.5" cy="18.5" r="18.5" fill="url(#a)"/><use fill="#000" filter="url(#b)" xlink:href="#c"/><use fill="#FFF" xlink:href="#c"/></g></svg>