<svg xmlns="http://www.w3.org/2000/svg" width="37" height="37"><defs><linearGradient id="a" x1="50%" x2="50%" y1="0%" y2="100%"><stop offset="0%" stop-color="#E4F5EB"/><stop offset="100%" stop-color="#E6EAFA"/></linearGradient></defs><g fill="none" fill-rule="evenodd"><circle cx="18.5" cy="18.5" r="18.5" fill="url(#a)"/><path fill="#D48FCD" d="M18.62 15.488l5.413 2.459-.357.786-5.414-2.458z"/><path fill="#A1DD71" d="M18.247 16.275l-5.414 2.459-.357-.788 5.413-2.458z"/><path fill="#5A9DED" d="M18.254 23.373v5.082l6.255-8.783-6.255 3.7zm3.185-.88l-2.32 3.258v-1.885l2.32-1.373z"/><path fill="#FF9C92" d="M18.254 8v14.073l6.255-3.701L18.254 8zm.865 3.107l4.2 6.965-4.2 2.485v-9.45z"/><path fill="#53D3E1" d="M18.254 28.455v-5.082L12 19.673l6.254 8.782zm-3.184-5.962l2.32 1.373v1.885l-2.32-3.258z"/><path fill="#F8D136" d="M18.254 8L12 18.372l6.254 3.7V8zM13.19 18.072l4.2-6.965v9.45l-4.2-2.485z"/></g></svg>