<svg xmlns="http://www.w3.org/2000/svg" xmlns:xlink="http://www.w3.org/1999/xlink" width="37" height="37"><defs><path id="a" d="M0 0h18.034v20.252H0z"/></defs><g fill="none" fill-rule="evenodd"><circle cx="18.5" cy="18.5" r="18.5" fill="#84CC46"/><g transform="translate(9 8)"><mask id="b" fill="#fff"><use xlink:href="#a"/></mask><path fill="#FFF" d="M.992 8.879l16.006-.397a.972.972 0 00.944-.992.972.972 0 00-.993-.944l-2.474.061L16.34 1.29a.971.971 0 00-.593-1.235.972.972 0 00-1.235.594l-2.107 6.01-7.52.187-2.403-5.9a.97.97 0 00-1.794.731l2.126 5.22-1.87.047A.972.972 0 000 7.936c.013.532.46.957.992.944zM8.89 16.68l-1.714-4.21 3.218-.08-1.504 4.29zm8.152-6.392l-16.005.396a.972.972 0 00-.944.992c.013.533.46.958.992.945l4.02-.1L8.01 19.65c.162.398.563.63.97.6a.973.973 0 00.94-.647l2.546-7.263 4.625-.115a.972.972 0 00.944-.992.972.972 0 00-.992-.944z" mask="url(#b)"/></g></g></svg>