<svg xmlns="http://www.w3.org/2000/svg" width="37" height="37"><g fill="none" fill-rule="evenodd"><circle cx="18.5" cy="18.5" r="18.5" fill="#24A980"/><path fill="#FFFDFA" d="M20.288 15.32v-2.496h5.75V9H10.413v3.824h5.75v2.496C11.499 15.537 8 16.459 8 17.57c0 1.113 3.5 2.035 8.164 2.252v8.029h4.15v-8.03c4.666-.216 8.164-1.139 8.164-2.251-.026-1.112-3.525-2.034-8.19-2.252zm0 3.797l-2.062.055c-1.085 0-1.817-.028-2.089-.055-4.096-.163-7.188-.895-7.188-1.736 0-.868 3.066-1.573 7.188-1.763v2.794c.272.027 1.031.054 2.116.054 1.275 0 1.926-.054 2.035-.054v-2.794c4.122.19 7.187.895 7.187 1.763 0 .841-3.065 1.573-7.187 1.736z"/></g></svg>