<svg xmlns="http://www.w3.org/2000/svg" xmlns:xlink="http://www.w3.org/1999/xlink" width="37" height="37"><defs><path id="a" d="M0 0h21.031v20.341H0z"/></defs><g fill="none" fill-rule="evenodd"><circle cx="18.5" cy="18.5" r="18.5" fill="#2775CA"/><g transform="translate(8 8)"><mask id="b" fill="#fff"><use xlink:href="#a"/></mask><path fill="#FFF" d="M13.653 20.317c-.329.094-.58-.094-.58-.423v-.83c0-.25.157-.47.392-.564 3.4-1.253 5.828-4.512 5.828-8.334s-2.444-7.065-5.844-8.318c-.203-.079-.391-.33-.391-.564v-.83c0-.33.266-.533.58-.423a10.627 10.627 0 017.393 10.135c.016 4.747-3.086 8.773-7.378 10.152zm-2.23-3.724c0 .25-.203.439-.438.439h-.877a.44.44 0 01-.44-.439v-1.41c-1.942-.266-2.882-1.347-3.132-2.82a.417.417 0 01.407-.485h1.003c.203 0 .391.157.438.36.188.878.69 1.551 2.256 1.551 1.144 0 1.958-.642 1.958-1.597 0-.956-.485-1.316-2.162-1.598C7.946 10.28 6.77 9.528 6.77 7.57c0-1.504 1.128-2.663 2.899-2.914V3.278c0-.25.204-.439.439-.439h.877c.25 0 .438.204.438.439v1.41c1.426.25 2.334 1.065 2.632 2.412.063.25-.14.501-.407.501h-.94c-.204 0-.36-.14-.423-.328-.25-.862-.862-1.223-1.927-1.223-1.175 0-1.786.564-1.786 1.364 0 .845.345 1.268 2.146 1.519 2.444.329 3.698 1.034 3.698 3.102 0 1.582-1.176 2.851-2.993 3.149v1.41zm-3.449 3.28c0 .329-.267.517-.58.423A10.631 10.631 0 010 10.16C0 5.413 3.118 1.387 7.394.024c.33-.094.58.094.58.423v.83c0 .22-.173.486-.392.565a8.828 8.828 0 00-5.812 8.302c0 3.823 2.428 7.081 5.827 8.334.204.079.392.33.392.565v.83h-.015z" mask="url(#b)"/></g></g></svg>