<svg xmlns="http://www.w3.org/2000/svg" width="28" height="28"><path d="M14 0C6.268 0 0 6.423 0 14.347c0 6.373 4.055 11.775 9.665 13.645.935.102.895-.839.895-.839-.003-.746-.012-1.493-.02-2.24 0-.096-.015-.193-.017-.216-.713.008-1.385.05-2.053.012-.746-.04-1.447-.25-2.022-.792-.37-.348-.543-.804-.743-1.253-.335-.756-.748-1.45-1.485-1.877a1.238 1.238 0 01-.322-.3c-.251-.304-.2-.467.182-.5.237-.022.494.002.722.074.794.248 1.368.782 1.785 1.51.316.552.738.996 1.324 1.245.757.322 1.515.176 2.27-.024.281-.074.462-.22.474-.545.006-.135.048-.279.11-.4.195-.391.408-.774.613-1.158-.098-.015-.235-.025-.366-.058-.74-.18-1.498-.31-2.212-.566-.982-.353-1.865-.914-2.466-1.816-1.157-1.737-1.407-3.684-1.139-5.719.13-.982.57-1.837 1.2-2.59.06-.074.102-.223.073-.31-.341-1.028-.291-2.05-.002-3.078.175-.62.32-.71.946-.564.009.002.017.007.026.009 1.033.267 1.975.738 2.871 1.32.12.077.305.1.449.077.51-.086 1.01-.237 1.522-.304 1.686-.22 3.357-.13 5.007.31.128.033.299-.016.424-.08.698-.355 1.381-.743 2.084-1.088.42-.205.872-.33 1.347-.274.088.01.214.083.242.158.425 1.134.574 2.288.168 3.463-.06.171-.013.271.09.393a5.17 5.17 0 011.169 2.456c.216 1.201.127 2.394-.148 3.575-.21.906-.539 1.763-1.148 2.471-.954 1.107-2.195 1.688-3.578 1.988-.446.097-.898.164-1.383.25.699.703.91 1.552.915 2.474.008 1.322.003 2.645.013 3.967.017.02-.048.987.903.823C23.97 26.09 28 20.7 28 14.347 28 6.423 21.732 0 14 0z" fill="#AD9777" fill-rule="evenodd"/></svg>