<svg xmlns="http://www.w3.org/2000/svg" width="28" height="28"><path d="M14 0c7.732 0 14 6.268 14 14s-6.268 14-14 14S0 21.732 0 14 6.268 0 14 0zm.62 6.6L7.925 9.913c-1.117.551-2.234 1.1-3.352 1.648-.976.478-1.336 1.27-1.36 2.427.116 1.18.492 2.357 1.773 3.02 1.853.96 3.712 1.91 5.57 2.857.22.112.361.238.441.5.263.854 1.069 1.37 1.97 1.316.798-.048 1.588-.687 1.694-1.455.047-.341.204-.5.474-.644 2-1.072 3.998-2.15 5.993-3.232.183-.1.319-.106.503.006a1.82 1.82 0 001.437.214c1.005-.25 1.625-1.252 1.41-2.302-.194-.943-1.183-1.627-2.12-1.466-1.093.188-1.796 1.114-1.625 2.17.043.267-.041.39-.277.513a728.766 728.766 0 00-5.797 3.078c-.182.098-.274.083-.422-.07-.901-.928-2.251-.846-2.996.189-.156.217-.253.206-.459.098a710.849 710.849 0 00-5.266-2.745 1.915 1.915 0 01-.853-.84c-.34-.66-.502-1.352-.236-2.075.172-.467.51-.568.932-.346 2.137 1.124 4.284 2.232 6.412 3.372.505.27.942.273 1.44.006 1.19-.64 2.398-1.248 3.598-1.87l6.463-3.345c.202-.104.418-.207.43-.465.01-.23-.173-.335-.357-.422L16.06 6.602c-.479-.227-.96-.24-1.44-.003zm-1.806 12.54c.32 0 .583.229.639.531.004.02.004.042.006.063.002.019.006.037.006.056v.008a.65.65 0 01-1.3-.008v-.014c0-.04.005-.077.012-.115v-.003a.592.592 0 01.098-.23v-.002l.022-.026a.646.646 0 01.517-.26zm9.8-5.092a.64.64 0 01.64.64l-.001.007v.007c0 .172-.07.327-.186.438a.639.639 0 01-1.092-.435l-.001-.017v-.009a.64.64 0 01.64-.631z" fill="#AD9777" fill-rule="evenodd"/></svg>