<svg xmlns="http://www.w3.org/2000/svg" width="28" height="28"><path d="M23.9 4.1c5.467 5.468 5.467 14.332 0 19.799a13.91 13.91 0 01-9.9 4.1A13.999 13.999 0 014.101 4.1c5.467-5.467 14.331-5.467 19.799 0zm-4.458 3.543L5.767 12.866s-.41.116-.41.435c0 .32.41.407.41.407l3.346 1.248 1.232 4.033s.147.522.411.522.763-.464.763-.464l1.438-1.19s.323-.348 1.027.174l2.993 2.148s.352.203.587.174c.235-.03.352-.813.352-.813l2.406-11.403s.118-.378-.088-.58c0 0-.117-.175-.792.086zM17.1 9.653c.122.058-.061.232-.061.232l-5.449 4.799c-.487.405-.64.896-.64.896l-.182 1.36s-.06.202-.182.202-.213-.26-.213-.26l-.579-1.938s-.152-.549-.152-.78c0-.231.456-.492.456-.492l6.697-3.932c.244-.144.305-.086.305-.086z" fill="#AD9777"/></svg>